<svg xmlns="http://www.w3.org/2000/svg" viewBox="0 0 512 512">
  <defs>
    <radialGradient id="bg" cx="50%" cy="50%" r="60%">
      <stop offset="0%" stop-color="#1a0a2e"/>
      <stop offset="100%" stop-color="#0a0a1a"/>
    </radialGradient>
    <linearGradient id="brain" x1="0%" y1="0%" x2="100%" y2="100%">
      <stop offset="0%" stop-color="#00d4ff"/>
      <stop offset="50%" stop-color="#a855f7"/>
      <stop offset="100%" stop-color="#ff2daa"/>
    </linearGradient>
    <filter id="glow">
      <feGaussianBlur stdDeviation="8" result="blur"/>
      <feMerge>
        <feMergeNode in="blur"/>
        <feMergeNode in="SourceGraphic"/>
      </feMerge>
    </filter>
  </defs>
  <rect width="512" height="512" rx="96" fill="url(#bg)"/>
  <g filter="url(#glow)" fill="none" stroke="url(#brain)" stroke-width="14" stroke-linecap="round" stroke-linejoin="round" transform="translate(96 96) scale(0.625)">
    <path d="M256 80c-44 0-80 32-84 72-32 4-56 32-56 64 0 16 8 32 20 44-12 12-20 28-20 44 0 36 28 64 64 64h152c36 0 64-28 64-64 0-16-8-32-20-44 12-12 20-28 20-44 0-32-24-60-56-64-4-40-40-72-84-72z"/>
    <path d="M256 80v336" stroke-dasharray="6 12"/>
    <circle cx="180" cy="200" r="8" fill="url(#brain)"/>
    <circle cx="332" cy="200" r="8" fill="url(#brain)"/>
    <circle cx="180" cy="320" r="8" fill="url(#brain)"/>
    <circle cx="332" cy="320" r="8" fill="url(#brain)"/>
  </g>
</svg>
