<svg xmlns="http://www.w3.org/2000/svg" viewBox="0 0 512 512">
  <defs>
    <radialGradient id="tpBg" cx="50%" cy="42%" r="78%">
      <stop offset="0%" stop-color="#0c1020"/>
      <stop offset="100%" stop-color="#000005"/>
    </radialGradient>
    <linearGradient id="tpNeon" x1="0%" y1="0%" x2="100%" y2="100%">
      <stop offset="0%" stop-color="#7df9ef"/>
      <stop offset="50%" stop-color="#2fd6e6"/>
      <stop offset="100%" stop-color="#19b6d8"/>
    </linearGradient>
    <linearGradient id="tpSilver" x1="0" y1="0" x2="0" y2="1">
      <stop offset="0%" stop-color="#ffffff"/>
      <stop offset="42%" stop-color="#cfd4da"/>
      <stop offset="62%" stop-color="#f4f5f7"/>
      <stop offset="100%" stop-color="#a7adb6"/>
    </linearGradient>
    <filter id="tpGlow" x="-30%" y="-30%" width="160%" height="160%">
      <feGaussianBlur stdDeviation="7" result="b"/>
      <feMerge><feMergeNode in="b"/><feMergeNode in="SourceGraphic"/></feMerge>
    </filter>
  </defs>

  <rect width="512" height="512" rx="96" fill="url(#tpBg)"/>

  <!-- Two face profiles forming a heart (neon tube) -->
  <g fill="none" stroke-linecap="round" stroke-linejoin="round">
    <path d="M224 458 C200 428 165 412 160 378 C156 356 168 344 156 326 C146 312 158 300 146 286 C132 274 110 270 112 246 C113 212 138 178 152 166 C168 150 168 122 196 110 C218 101 242 116 256 152 C270 116 294 101 316 110 C344 122 344 150 360 166 C374 178 399 212 400 246 C402 270 380 274 366 286 C354 300 366 312 356 326 C344 344 356 356 352 378 C347 412 312 428 288 458" stroke="url(#tpNeon)" stroke-width="16" filter="url(#tpGlow)" opacity="0.85"/>
    <path d="M224 458 C200 428 165 412 160 378 C156 356 168 344 156 326 C146 312 158 300 146 286 C132 274 110 270 112 246 C113 212 138 178 152 166 C168 150 168 122 196 110 C218 101 242 116 256 152 C270 116 294 101 316 110 C344 122 344 150 360 166 C374 178 399 212 400 246 C402 270 380 274 366 286 C354 300 366 312 356 326 C344 344 356 356 352 378 C347 412 312 428 288 458" stroke="url(#tpNeon)" stroke-width="9"/>
    <path d="M224 458 C200 428 165 412 160 378 C156 356 168 344 156 326 C146 312 158 300 146 286 C132 274 110 270 112 246 C113 212 138 178 152 166 C168 150 168 122 196 110 C218 101 242 116 256 152 C270 116 294 101 316 110 C344 122 344 150 360 166 C374 178 399 212 400 246 C402 270 380 274 366 286 C354 300 366 312 356 326 C344 344 356 356 352 378 C347 412 312 428 288 458" stroke="#eafffb" stroke-width="3.2" opacity="0.95"/>
  </g>

  <!-- Center silver T -->
  <path d="M200 188 L312 188 L312 220 L272 220 L272 316 L256 340 L240 316 L240 220 L200 220 Z" fill="url(#tpSilver)" stroke="#6b7682" stroke-width="3" stroke-linejoin="round"/>
</svg>
